<svg xmlns="http://www.w3.org/2000/svg" xmlns:xlink="http://www.w3.org/1999/xlink" viewBox="0 0 1054 1041"><defs><style>.cls-1{fill:#fff;}.cls-2{fill:url(#linear-gradient);}.cls-3{fill:url(#linear-gradient-2);}.cls-4{fill:url(#linear-gradient-3);}</style><linearGradient id="linear-gradient" x1="3017.6" y1="764.18" x2="3161.85" y2="765.29" gradientTransform="matrix(5.57, 0, 0, -5.57, -16683.46, 4778.97)" gradientUnits="userSpaceOnUse"><stop offset="0" stop-color="#ffb900"/><stop offset="0.34" stop-color="#f38000"/><stop offset="0.57" stop-color="#f83c72"/><stop offset="0.78" stop-color="#fc1cbe"/><stop offset="0.93" stop-color="#fe08ed"/><stop offset="1" stop-color="#f0f"/></linearGradient><linearGradient id="linear-gradient-2" x1="3058.14" y1="716.96" x2="3205.21" y2="798.39" gradientTransform="matrix(5.57, 0, 0, -5.57, -16683.46, 4778.97)" gradientUnits="userSpaceOnUse"><stop offset="0" stop-color="#ee0a3f"/><stop offset="1" stop-color="#ee0a3f" stop-opacity="0"/></linearGradient><linearGradient id="linear-gradient-3" x1="4301.72" y1="740.36" x2="4373.55" y2="798.22" gradientTransform="translate(24139.56 4731.56) rotate(180) scale(5.51)" gradientUnits="userSpaceOnUse"><stop offset="0" stop-color="#ed6600"/><stop offset="1" stop-color="#f98200"/></linearGradient></defs><g id="Layer_2" data-name="Layer 2"><g id="svg8"><rect class="cls-1" width="1054" height="1041" rx="163.38"/><g id="layer1"><g id="g975"><g id="layer1-5"><g id="layer1-2"><g id="g942"><g id="g71"><path id="path69" class="cls-2" d="M527.18,849.74a32.87,32.87,0,0,1-16.44-4.27c-42.9-24.82-360.64-224-372.64-230.13a28.77,28.77,0,0,1-16.44-23V312.89a30.25,30.25,0,0,1,13.65-26l2.3-1.31c30.74-19.07,133.63-81.86,149.91-90.9a24.67,24.67,0,0,1,12.33-3.46,25.8,25.8,0,0,1,11.67,3s144,93.86,166,102.25a113.6,113.6,0,0,0,49.31,10.35,110.44,110.44,0,0,0,55.23-13.48c21.53-11.34,159.11-98.62,160.59-98.62a21.71,21.71,0,0,1,11.51-3.13A24.25,24.25,0,0,1,766.51,195c18.74,10.35,146.29,88.43,151.72,91.88a29.59,29.59,0,0,1,14.3,25.64V592a28.43,28.43,0,0,1-16.44,23c-12,6.58-328.75,205.8-372.48,230.13a32.76,32.76,0,0,1-16.43,4.6"/></g><g id="g79"><path id="path77" class="cls-3" d="M525.53,849.74h1.65a32.84,32.84,0,0,0,16.43-4.27c42.91-24.82,360.48-224,372.48-230.13a28.45,28.45,0,0,0,16.44-23V312.89a29.89,29.89,0,0,0-3.13-13.64L525.53,521V849.74"/></g><g id="g970"><path id="path968" class="cls-4" d="M524.13,845.8H522.5a32.53,32.53,0,0,1-16.26-4.23C463.8,817,149.61,619.92,137.73,613.9a28.15,28.15,0,0,1-16.26-22.77V314.67a29.69,29.69,0,0,1,3.09-13.5L524.13,520.55V845.8"/></g></g></g></g></g></g></g></g></svg>