<svg xmlns="http://www.w3.org/2000/svg" viewBox="0 0 1054 1041"><defs><style>.cls-1{fill:#fff;}.cls-2{fill:#26aae1;}</style></defs><g id="Layer_2" data-name="Layer 2"><g id="svg8"><rect class="cls-1" width="1054" height="1041" rx="163.38"/><path class="cls-2" d="M420,817.86a38.67,38.67,0,0,1-38.67-38.67V478.37a38.67,38.67,0,0,1,77.34,0V779.19A38.68,38.68,0,0,1,420,817.86"/><path class="cls-2" d="M864.16,817.86a38.67,38.67,0,0,1-38.67-38.67V478.37a38.67,38.67,0,0,1,77.34,0V779.19a38.67,38.67,0,0,1-38.67,38.67"/><path class="cls-2" d="M326.76,442.71h-192a36.62,36.62,0,0,0,0,73.23H193V780a36.61,36.61,0,0,0,36.61,36.62h3.52A36.61,36.61,0,0,0,269.73,780V515.94h57a36.62,36.62,0,1,0,0-73.23"/><path class="cls-2" d="M584.42,650.68c0,41.94.07,82.92,0,123.9-.06,27.24-14.34,42.24-39.77,42.08-24.94-.16-38.55-14.38-38.59-41.44q-.24-145.83,0-291.66c0-27.2,14.81-43.36,38.91-43.51,25.83-.15,39.42,14.9,39.47,43.9.05,34.09,0,68.19,0,106.92,13.47-14.16,24.42-25.57,35.25-37.08,31.72-33.66,63.3-67.45,95.13-101,12-12.66,26.55-16.33,43.09-9.94,14.7,5.67,22.68,16.65,23.73,32.22s-8.34,26.7-18.41,36.78Q723.07,552,682.3,591.51c-25,24.3-25.16,24.16-.56,49.83L783.2,747.21c7.71,8,14.75,16.55,16,28.16,1.68,15.17-1.64,28.28-16.14,36.33s-35.32,7.36-47.3-3.91c-17.19-16.18-33.23-33.62-49.35-50.9-30.83-33-61.33-66.4-92.09-99.51-2.33-2.51-4-6.27-9.93-6.7"/><path class="cls-2" d="M418,390.39h0a70.62,70.62,0,0,1-68.11-89.13H486.13A70.58,70.58,0,0,1,418,390.39m0-167.25a91.06,91.06,0,1,0,91.06,91.06A91.06,91.06,0,0,0,418,223.14Z"/><path class="cls-2" d="M864.77,390.39h0a70.58,70.58,0,0,1-68.11-89.13H932.87a70.58,70.58,0,0,1-68.1,89.13m0-167.25a91.06,91.06,0,1,0,91.05,91.06A91.06,91.06,0,0,0,864.77,223.14Z"/></g></g></svg>